<svg width="169" height="52" viewBox="0 0 169 52" fill="none" xmlns="http://www.w3.org/2000/svg">
<rect width="169" height="52" rx="12" fill="white"/>
<rect x="0.5" y="0.5" width="168" height="51" rx="11.5" stroke="#D5EA00" stroke-opacity="0.1"/>
<path d="M36.88 31.688H33.072V31.176C33.68 31.176 34.0853 31.0907 34.288 30.92C34.4587 30.76 34.544 30.5253 34.544 30.216V21.56C33.872 23.288 33.2107 24.9947 32.56 26.68C31.92 28.3547 31.2747 30.056 30.624 31.784H30.128C29.488 30.088 28.864 28.408 28.256 26.744C27.648 25.0693 27.024 23.3787 26.384 21.672V30.216C26.384 30.568 26.4747 30.8187 26.656 30.968C26.8693 31.1067 27.2373 31.176 27.76 31.176V31.688H24.48V31.176C25.0027 31.176 25.344 31.1173 25.504 31C25.6747 30.872 25.76 30.6747 25.76 30.408V21.928C25.76 21.6187 25.6747 21.4 25.504 21.272C25.3333 21.1333 24.9973 21.064 24.496 21.064V20.536H27.152C27.728 22.1147 28.304 23.672 28.88 25.208C29.4667 26.744 30.048 28.3067 30.624 29.896C31.2 28.3067 31.776 26.744 32.352 25.208C32.9387 23.672 33.52 22.1147 34.096 20.536H36.88V21.064C36.2613 21.064 35.8827 21.1333 35.744 21.272C35.6267 21.4213 35.568 21.624 35.568 21.88V30.216C35.568 30.5467 35.6373 30.7813 35.776 30.92C35.9787 31.0907 36.3467 31.176 36.88 31.176V31.688ZM47.039 21.048C46.6977 21.048 46.4043 21.1333 46.159 21.304C45.999 21.4213 45.807 21.672 45.583 22.056L42.831 27.032V30.344C42.831 30.6533 42.911 30.8613 43.071 30.968C43.3057 31.1067 43.743 31.176 44.383 31.176V31.688H40.223V31.176C40.5537 31.176 40.8257 31.1547 41.039 31.112C41.263 31.08 41.4337 31.0373 41.551 30.984C41.7217 30.8773 41.807 30.6587 41.807 30.328V27.192L38.831 21.72C38.703 21.4747 38.543 21.304 38.351 21.208C38.1697 21.1013 37.8923 21.048 37.519 21.048V20.536H41.183V21.048C40.927 21.048 40.687 21.0533 40.463 21.064C40.2497 21.064 40.1003 21.1013 40.015 21.176C39.9403 21.2293 39.903 21.2933 39.903 21.368C39.9137 21.4427 39.9403 21.5227 39.983 21.608L42.495 26.296L44.975 21.816C45.0283 21.72 45.0603 21.624 45.071 21.528C45.0817 21.432 45.0443 21.3413 44.959 21.256C44.8203 21.1173 44.415 21.048 43.743 21.048V20.536H47.039V21.048ZM61.7363 20.536C61.8963 20.9947 62.0563 21.448 62.2163 21.896C62.3763 22.344 62.5309 22.808 62.6803 23.288C62.5949 23.3093 62.5149 23.336 62.4403 23.368C62.3763 23.4 62.3016 23.4267 62.2163 23.448C62.0136 23 61.8163 22.6373 61.6243 22.36C61.4429 22.072 61.2616 21.8427 61.0803 21.672C60.8456 21.4587 60.5683 21.3147 60.2483 21.24C59.9283 21.1653 59.6136 21.128 59.3043 21.128C58.6856 21.128 58.2803 21.176 58.0883 21.272C57.8749 21.368 57.7683 21.56 57.7683 21.848V30.344C57.7683 30.6533 57.8856 30.872 58.1203 31C58.3336 31.1173 58.7976 31.176 59.5123 31.176V31.688H55.0003V31.176C55.6403 31.176 56.0723 31.1227 56.2963 31.016C56.5949 30.8773 56.7443 30.6533 56.7443 30.344V21.72C56.7443 21.496 56.6589 21.3413 56.4883 21.256C56.3283 21.1707 56.0029 21.128 55.5123 21.128C55.1389 21.128 54.7549 21.16 54.3603 21.224C53.9763 21.288 53.6456 21.4373 53.3683 21.672C53.2509 21.768 53.1389 21.8853 53.0323 22.024C52.9256 22.152 52.8029 22.3227 52.6643 22.536C52.5789 22.6747 52.4989 22.8133 52.4243 22.952C52.3496 23.08 52.2696 23.2187 52.1842 23.368C52.1203 23.336 52.0563 23.3093 51.9923 23.288C51.9389 23.256 51.8803 23.224 51.8163 23.192C51.9763 22.744 52.1363 22.3013 52.2963 21.864C52.4563 21.4267 52.6163 20.984 52.7763 20.536H61.7363ZM67.3721 31.688H63.5961V31.176C64.1188 31.176 64.4815 31.1067 64.6841 30.968C64.8655 30.84 64.9561 30.6267 64.9561 30.328V21.992C64.9561 21.6507 64.8655 21.4053 64.6841 21.256C64.4708 21.1067 64.1081 21.032 63.5961 21.032V20.536H67.3721V21.032C67.1801 21.032 67.0095 21.048 66.8601 21.08C66.7215 21.1013 66.5988 21.128 66.4921 21.16C66.2895 21.2347 66.1561 21.3413 66.0921 21.48C66.0281 21.608 65.9961 21.7787 65.9961 21.992V30.328C65.9961 30.648 66.0761 30.8613 66.2361 30.968C66.4495 31.1067 66.8281 31.176 67.3721 31.176V31.688ZM77.3905 28.392C77.4652 28.424 77.5398 28.4613 77.6145 28.504C77.6998 28.5467 77.7798 28.584 77.8545 28.616C77.4492 29.6933 76.8892 30.4933 76.1745 31.016C75.4172 31.624 74.5318 31.928 73.5185 31.928C72.7825 31.928 72.1158 31.784 71.5185 31.496C70.9212 31.208 70.3985 30.7867 69.9505 30.232C69.1292 29.1333 68.7185 27.7733 68.7185 26.152C68.7185 24.4987 69.1292 23.1173 69.9505 22.008C70.8145 20.8667 71.9238 20.296 73.2785 20.296C74.1318 20.296 74.8625 20.456 75.4705 20.776C75.6198 20.712 75.7745 20.6533 75.9345 20.6C76.0945 20.536 76.2492 20.4773 76.3985 20.424C76.6012 20.9147 76.7985 21.4 76.9905 21.88C77.1932 22.36 77.3958 22.8453 77.5985 23.336C77.5238 23.368 77.4545 23.4053 77.3905 23.448C77.3265 23.48 77.2572 23.512 77.1825 23.544C76.7452 22.8293 76.2652 22.2533 75.7425 21.816C75.1772 21.3573 74.5798 21.0907 73.9505 21.016C73.8438 20.9947 73.7372 20.984 73.6305 20.984C73.5238 20.984 73.4118 20.984 73.2945 20.984C72.5798 21.016 71.9398 21.3147 71.3745 21.88C71.1825 22.072 71.0065 22.28 70.8465 22.504C70.1852 23.4533 69.8545 24.6373 69.8545 26.056C69.8545 27.4427 70.2065 28.6 70.9105 29.528C71.0065 29.6453 71.1025 29.7573 71.1985 29.864C71.3052 29.9707 71.4065 30.0667 71.5025 30.152C71.8332 30.4827 72.1905 30.7227 72.5745 30.872C72.9692 31.0213 73.3905 31.096 73.8385 31.096C74.5318 31.096 75.1932 30.8453 75.8225 30.344C76.4945 29.8 77.0172 29.1493 77.3905 28.392ZM86.7903 30.84C86.7903 30.776 86.7636 30.7013 86.7103 30.616L83.2063 25.512L81.1583 27.32V30.36C81.1583 30.6693 81.2276 30.872 81.3663 30.968C81.5689 31.1067 81.9316 31.176 82.4543 31.176V31.688H78.8543V31.176C79.3556 31.176 79.7076 31.1067 79.9103 30.968C80.0703 30.8613 80.1503 30.6533 80.1503 30.344V22.008C80.1503 21.6347 80.0756 21.384 79.9263 21.256C79.7449 21.1067 79.3876 21.032 78.8543 21.032V20.536H82.4543V21.032C81.9316 21.032 81.5743 21.112 81.3823 21.272C81.2329 21.3893 81.1583 21.64 81.1583 22.024V26.488L86.2943 21.864C86.3903 21.768 86.4543 21.6667 86.4862 21.56C86.5183 21.4533 86.4863 21.352 86.3903 21.256C86.2623 21.1067 85.8729 21.032 85.2223 21.032V20.536H88.8703V21.048C88.6889 21.048 88.5236 21.064 88.3743 21.096C88.2356 21.128 88.0916 21.1867 87.9423 21.272C87.7183 21.4107 87.4089 21.6507 87.0143 21.992L83.9583 24.744L87.7503 30.312C87.8676 30.4933 87.9743 30.6373 88.0703 30.744C88.1663 30.8507 88.2463 30.9307 88.3103 30.984C88.4276 31.0693 88.5769 31.1227 88.7583 31.144C88.9503 31.1653 89.1636 31.176 89.3983 31.176V31.688H85.4143V31.176C86.1076 31.176 86.5129 31.1387 86.6302 31.064C86.7369 31 86.7903 30.9253 86.7903 30.84ZM99.078 28.744C99.1313 28.776 99.19 28.808 99.254 28.84C99.318 28.872 99.3767 28.904 99.43 28.936C99.2487 29.416 99.0727 29.8853 98.902 30.344C98.742 30.792 98.5713 31.24 98.39 31.688H90.15V31.176C90.6407 31.176 90.998 31.096 91.222 30.936C91.4033 30.776 91.494 30.536 91.494 30.216V21.992C91.494 21.8747 91.478 21.7733 91.446 21.688C91.3927 21.5493 91.3287 21.4373 91.254 21.352C91.0407 21.16 90.6727 21.064 90.15 21.064V20.536H98.022C98.2033 20.9947 98.3793 21.448 98.55 21.896C98.7313 22.344 98.9127 22.7973 99.094 23.256C99.0407 23.288 98.9873 23.3253 98.934 23.368C98.8807 23.4 98.8273 23.4267 98.774 23.448C98.55 23 98.2993 22.632 98.022 22.344C97.7447 22.056 97.4887 21.832 97.254 21.672C96.6887 21.288 96.0327 21.096 95.286 21.096H93.59C93.2487 21.096 92.9713 21.1707 92.758 21.32C92.598 21.448 92.518 21.672 92.518 21.992V25.592H94.918C95.43 25.592 95.782 25.48 95.974 25.256C96.2193 24.9787 96.342 24.456 96.342 23.688H96.822V28.12H96.342C96.342 27.2987 96.2193 26.7653 95.974 26.52C95.782 26.296 95.43 26.184 94.918 26.184H92.518V30.232C92.518 30.5627 92.598 30.7973 92.758 30.936C92.8647 31.0213 92.9873 31.0747 93.126 31.096C93.2753 31.128 93.4407 31.144 93.622 31.144H95.462C96.3047 31.144 96.9607 30.9893 97.43 30.68C97.7073 30.4987 97.9793 30.2427 98.246 29.912C98.5233 29.5813 98.8007 29.192 99.078 28.744ZM109.971 20.536C110.131 20.9947 110.291 21.448 110.451 21.896C110.611 22.344 110.765 22.808 110.915 23.288C110.829 23.3093 110.749 23.336 110.675 23.368C110.611 23.4 110.536 23.4267 110.451 23.448C110.248 23 110.051 22.6373 109.859 22.36C109.677 22.072 109.496 21.8427 109.315 21.672C109.08 21.4587 108.803 21.3147 108.483 21.24C108.163 21.1653 107.848 21.128 107.539 21.128C106.92 21.128 106.515 21.176 106.323 21.272C106.109 21.368 106.003 21.56 106.003 21.848V30.344C106.003 30.6533 106.12 30.872 106.355 31C106.568 31.1173 107.032 31.176 107.747 31.176V31.688H103.235V31.176C103.875 31.176 104.307 31.1227 104.531 31.016C104.829 30.8773 104.979 30.6533 104.979 30.344V21.72C104.979 21.496 104.893 21.3413 104.723 21.256C104.563 21.1707 104.237 21.128 103.747 21.128C103.373 21.128 102.989 21.16 102.595 21.224C102.211 21.288 101.88 21.4373 101.603 21.672C101.485 21.768 101.373 21.8853 101.267 22.024C101.16 22.152 101.037 22.3227 100.899 22.536C100.813 22.6747 100.733 22.8133 100.659 22.952C100.584 23.08 100.504 23.2187 100.419 23.368C100.355 23.336 100.291 23.3093 100.227 23.288C100.173 23.256 100.115 23.224 100.051 23.192C100.211 22.744 100.371 22.3013 100.531 21.864C100.691 21.4267 100.851 20.984 101.011 20.536H109.971ZM119.719 28.824C119.719 29.8053 119.388 30.568 118.727 31.112C118.097 31.6773 117.244 31.96 116.167 31.96C115.804 31.96 115.409 31.9173 114.983 31.832C114.556 31.7467 114.156 31.624 113.783 31.464C113.601 31.5173 113.42 31.576 113.239 31.64C113.068 31.704 112.908 31.7787 112.759 31.864C112.567 31.352 112.369 30.8507 112.167 30.36C111.975 29.8693 111.783 29.368 111.59 28.856C111.665 28.8133 111.735 28.776 111.799 28.744C111.863 28.7013 111.932 28.664 112.007 28.632C112.529 29.4747 113.036 30.0773 113.527 30.44C113.687 30.568 113.873 30.6853 114.087 30.792C114.311 30.8987 114.54 30.9893 114.775 31.064C115.009 31.1493 115.244 31.2133 115.479 31.256C115.713 31.2987 115.927 31.32 116.119 31.32C116.524 31.32 116.887 31.2667 117.207 31.16C117.527 31.0533 117.793 30.904 118.007 30.712C118.455 30.296 118.679 29.7467 118.679 29.064C118.679 28.808 118.62 28.5573 118.503 28.312C118.385 28.056 118.231 27.848 118.039 27.688C117.612 27.3467 116.775 26.9627 115.527 26.536C114.535 26.184 113.751 25.7733 113.174 25.304C112.407 24.7173 112.023 24.0027 112.023 23.16C112.023 22.296 112.332 21.6027 112.951 21.08C113.548 20.5573 114.327 20.296 115.286 20.296C115.745 20.296 116.193 20.36 116.631 20.488C116.748 20.5307 116.86 20.5733 116.967 20.616C117.084 20.6587 117.191 20.7013 117.287 20.744L118.247 20.424C118.439 20.9147 118.631 21.4 118.823 21.88C119.015 22.36 119.207 22.8453 119.399 23.336C119.281 23.3893 119.164 23.448 119.047 23.512C118.599 22.744 118.087 22.136 117.511 21.688C116.817 21.176 116.071 20.92 115.271 20.92C114.993 20.92 114.737 20.9627 114.503 21.048C114.268 21.1227 114.055 21.224 113.863 21.352C113.596 21.5333 113.388 21.7627 113.239 22.04C113.089 22.3173 113.015 22.6427 113.015 23.016C113.015 23.624 113.329 24.1307 113.959 24.536C114.279 24.728 114.588 24.8933 114.887 25.032C115.185 25.16 115.569 25.2987 116.039 25.448C116.689 25.6613 117.239 25.88 117.687 26.104C118.135 26.328 118.492 26.5467 118.759 26.76C119.399 27.272 119.719 27.96 119.719 28.824Z" fill="#0A0C11"/>
<path d="M129 25.5C128.724 25.5 128.5 25.7239 128.5 26C128.5 26.2761 128.724 26.5 129 26.5V25.5ZM145.354 26.3536C145.549 26.1583 145.549 25.8417 145.354 25.6464L142.172 22.4645C141.976 22.2692 141.66 22.2692 141.464 22.4645C141.269 22.6597 141.269 22.9763 141.464 23.1716L144.293 26L141.464 28.8284C141.269 29.0237 141.269 29.3403 141.464 29.5355C141.66 29.7308 141.976 29.7308 142.172 29.5355L145.354 26.3536ZM129 26.5H145V25.5H129V26.5Z" fill="#0A0C11"/>
</svg>
