<svg width="556" height="200" viewBox="0 0 556 200" fill="none" xmlns="http://www.w3.org/2000/svg">
<mask id="path-1-inside-1_5_767" fill="white">
<path d="M0 24C0 10.7452 10.7452 0 24 0H532C545.255 0 556 10.7452 556 24V176C556 189.255 545.255 200 532 200H24C10.7452 200 0 189.255 0 176V24Z"/>
</mask>
<path d="M0 24C0 10.7452 10.7452 0 24 0H532C545.255 0 556 10.7452 556 24V176C556 189.255 545.255 200 532 200H24C10.7452 200 0 189.255 0 176V24Z" fill="#0A0C11" fill-opacity="0.1"/>
<path d="M0 24C0 10.7452 10.7452 0 24 0H532C545.255 0 556 10.7452 556 24V176C556 189.255 545.255 200 532 200H24C10.7452 200 0 189.255 0 176V24Z" fill="url(#paint0_radial_5_767)"/>
<path d="M0 0H556H0ZM558 176C558 190.359 546.359 202 532 202H24C9.6406 202 -2 190.359 -2 176H2C2 188.15 11.8497 198 24 198H532C544.15 198 554 188.15 554 176H558ZM24 202C9.6406 202 -2 190.359 -2 176V26C-2 11.6406 9.6406 0 24 0C11.8497 0 2 10.7452 2 24V176C2 188.15 11.8497 198 24 198V202ZM532 0C546.359 0 558 11.6406 558 26V176C558 190.359 546.359 202 532 202V198C544.15 198 554 188.15 554 176V24C554 10.7452 544.15 0 532 0Z" fill="#07373F" mask="url(#path-1-inside-1_5_767)"/>
<defs>
<radialGradient id="paint0_radial_5_767" cx="0" cy="0" r="1" gradientUnits="userSpaceOnUse" gradientTransform="translate(77.9393 64.1148) rotate(-4.94233) scale(578.38 115.278)">
<stop stop-color="#24A0B5" stop-opacity="0.2"/>
<stop offset="1" stop-color="#24A0B5" stop-opacity="0"/>
</radialGradient>
</defs>
</svg>
